<svg width="24" height="24" viewBox="0 0 24 24" fill="none" xmlns="http://www.w3.org/2000/svg">
<path d="M13.5374 11.8277C13.5374 15.5984 10.5069 18.6552 6.76884 18.6552C3.03073 18.6552 0 15.5977 0 11.8277C0 8.05767 3.0305 5 6.76884 5C10.5072 5 13.5374 8.05698 13.5374 11.8277Z" fill="white"/>
<path d="M20.9629 11.8277C20.9629 15.377 19.4477 18.2554 17.5785 18.2554C15.7093 18.2554 14.1941 15.377 14.1941 11.8277C14.1941 8.27834 15.7091 5.3999 17.5783 5.3999C19.4475 5.3999 20.9627 8.27742 20.9627 11.8277" fill="white"/>
<path d="M23.9998 11.8278C23.9998 15.0072 23.4669 17.5861 22.8095 17.5861C22.152 17.5861 21.6194 15.0078 21.6194 11.8278C21.6194 8.64782 22.1522 6.06958 22.8095 6.06958C23.4667 6.06958 23.9998 8.64759 23.9998 11.8278Z" fill="white"/>
</svg>
