<svg width="20" height="20" viewBox="0 0 20 20" fill="none" xmlns="http://www.w3.org/2000/svg">
<path d="M19.0522 0.947866C18.7393 0.65856 18.2674 0.434493 17.8414 0.421427L3.94448 0C3.07762 0.0462733 2.03274 0.752384 1.99682 1.73707C1.9614 2.70692 2.8825 3.59813 3.85232 3.56647L13.6171 3.8562L0.52326 16.95C-0.174423 17.6477 -0.174435 18.779 0.523315 19.4767C1.22104 20.1745 2.35229 20.1744 3.05001 19.4767L16.1438 6.38291L16.4336 16.1477C16.4343 17.0106 17.2927 18.0283 18.2629 18.0032C19.2331 17.9782 19.9891 16.9201 20 16.0555L19.5786 2.15857C19.5642 1.68301 19.3891 1.28324 19.0522 0.947866Z" fill="#FFE454"/>
</svg>
